:version 1.10
:name ASF
:units
  mass 1
  length 1
  angle deg
:documentation
  ASF file generated by Kaydara
:root
  axis xyz
  order  tx ty tz rx ry rz
  position 0 0 0
  orientation 0 0 0
:bonedata
  begin
    id 1
    name RightUpLegDummy
    direction -0.65628 -0.754516 0.00165102
    length 4.76918
    axis 0 0 0 xyz
  end
  begin
    id 2
    name RightUpLeg
    direction -0.145584 -0.923362 0.355256
    length 17.9961
    axis -24.7611 -13.1006 1.78531 xyz
    dof rx ry rz
  end
  begin
    id 3
    name RightLeg
    direction 0.263379 0.172355 -0.949171
    length 13.3386
    axis 89.6202 -21.1929 12.3855 xyz
    dof rx ry rz
  end
  begin
    id 4
    name RightFoot
    direction 0.224283 -0.968777 -0.105675
    length 5.86697
    axis 56.995 -39.6905 17.3365 xyz
    dof rx ry rz
  end
  begin
    id 5
    name RightToes
    direction -0.0806345 -0.9037 0.420506
    length 4.75197
    axis 146.825 -39.7828 17.6019 xyz
    dof rx ry rz
  end
  begin
    id 6
    name SpineDummy
    direction -3.39852e-014 1 9.33296e-014
    length 8.13779
    axis 0 0 0 xyz
  end
  begin
    id 7
    name Spine
    direction -0.156609 0.733703 0.661176
    length 7.14978
    axis 41.2365 5.68757 17.0844 xyz
    dof rx ry rz
  end
  begin
    id 8
    name Spine1
    direction 0 0 0
    length 0
    axis 42.8809 47.8308 -3.36039 xyz
    dof rx ry rz
  end
  begin
    id 9
    name HEadDummy
    direction 0.546431 0.701947 0.456819
    length 3.55512
    axis 42.8809 47.8308 -3.36039 xyz
  end
  begin
    id 10
    name HEad
    direction 0.23444 0.828559 0.508457
    length 7.35827
    axis 51.1864 49.2662 27.4903 xyz
    dof rx ry rz
  end
  begin
    id 11
    name LeftShoulder1Dummy
    direction 0.431183 0.475873 -0.766568
    length 2.49352
    axis 42.8809 47.8308 -3.36039 xyz
  end
  begin
    id 12
    name LeftShoulder1
    direction 0.268187 -0.383402 -0.883786
    length 4.48604
    axis -119.517 0.106469 35.1736 xyz
    dof rx ry rz
  end
  begin
    id 13
    name LeftArm
    direction 0.380567 -0.703221 -0.600541
    length 10.1142
    axis -5.41825 36.2925 7.8293 xyz
    dof rx ry rz
  end
  begin
    id 14
    name LeftForeArm
    direction 0.541071 -0.732356 -0.413396
    length 9.39839
    axis 4.65387 33.7604 7.81644 xyz
    dof rx ry rz
  end
  begin
    id 15
    name LeftHand
    direction 0.847511 -0.389379 -0.360707
    length 3.66142
    axis 7.65593 21.1436 -24.6758 xyz
    dof rx ry rz
  end
  begin
    id 16
    name RightShoulderDummy
    direction -0.692546 0.541855 0.476208
    length 2.49352
    axis 42.8809 47.8308 -3.36039 xyz
  end
  begin
    id 17
    name RightShoulder
    direction -0.870808 -0.316653 0.376065
    length 4.48602
    axis 141.571 51.133 -100.254 xyz
    dof rx ry rz
  end
  begin
    id 18
    name RightArm
    direction 0.366897 -0.87275 0.322015
    length 10.1142
    axis 92.3258 71.2036 138.917 xyz
    dof rx ry rz
  end
  begin
    id 19
    name RightForeArm
    direction 0.702487 -0.694568 0.155197
    length 9.39835
    axis 153.863 41.5092 -176.604 xyz
    dof rx ry rz
  end
  begin
    id 20
    name RightHand
    direction 0.79502 -0.601276 0.0800636
    length 3.66142
    axis 154.247 4.59222 142.9 xyz
    dof rx ry rz
  end
  begin
    id 21
    name LeftUpLegDummy
    direction 0.65628 -0.754516 0.00165102
    length 4.76919
    axis 0 0 0 xyz
  end
  begin
    id 22
    name LeftUpLeg
    direction -0.1277 -0.689368 0.713067
    length 17.9961
    axis -48.3385 -17.8675 0.791927 xyz
    dof rx ry rz
  end
  begin
    id 23
    name LeftLeg
    direction 0.109849 -0.991246 -0.0732378
    length 13.3386
    axis -2.05791 -7.30784 1.72042 xyz
    dof rx ry rz
  end
  begin
    id 24
    name LeftFoot
    direction 0.0448355 -0.272614 0.961078
    length 5.86697
    axis -18.7733 -7.89606 10.2113 xyz
    dof rx ry rz
  end
  begin
    id 25
    name LeftToes
    direction -0.18506 0.293668 0.937823
    length 4.75197
    axis 71.2267 -7.89606 10.2113 xyz
    dof rx ry rz
  end
:hierarchy
  begin
    root RightUpLegDummy SpineDummy LeftUpLegDummy
    RightUpLegDummy RightUpLeg
    RightUpLeg RightLeg
    RightLeg RightFoot
    RightFoot RightToes
    SpineDummy Spine
    Spine Spine1
    Spine1 HEadDummy LeftShoulder1Dummy RightShoulderDummy
    HEadDummy HEad
    LeftShoulder1Dummy LeftShoulder1
    LeftShoulder1 LeftArm
    LeftArm LeftForeArm
    LeftForeArm LeftHand
    RightShoulderDummy RightShoulder
    RightShoulder RightArm
    RightArm RightForeArm
    RightForeArm RightHand
    LeftUpLegDummy LeftUpLeg
    LeftUpLeg LeftLeg
    LeftLeg LeftFoot
    LeftFoot LeftToes
  end

:SAMPLES-PER-SECOND 30
:FULLY-SPECIFIED
:DEGREES
1
root  -2.23075 39.2547 -60.724 -0.573326 9.85354 -0.5505
RightUpLeg  20.8807 8.62128 4.20136
RightLeg  -107.574 -2.89125 18.6945
RightFoot  23.6088 6.08835 -18.2428
RightToes  -1.27222e-014 -6.36111e-015 6.36111e-015
Spine  -56.3334 -15.186 -8.68122
Spine1  10.7098 -13.012 43.7722
HEad  9.78449 -14.842 -20.2303
LeftShoulder1  6.36111e-015 -1.33558e-015 6.49777e-015
LeftArm  71.8114 -14.0131 -54.4437
LeftForeArm  -97.1679 -49.1734 115.949
LeftHand  3.48642 6.84862 5.26737
RightShoulder  -4.77083e-015 -6.36111e-015 -3.18055e-015
RightArm  89.1696 -33.3976 -5.02922
RightForeArm  -56.4546 28.6124 -82.8872
RightHand  -1.58374 10.2537 -5.75616
LeftUpLeg  42.1781 23.3983 23.0781
LeftLeg  -27.1377 -2.97886 -5.38238
LeftFoot  5.73659 2.15993 -6.1637
LeftToes  9.54166e-015 4.2066e-011 -8.07781e-011
2
root  -2.12302 39.2464 -60.6688 -0.642473 9.7456 -0.414178
RightUpLeg  20.889 8.40749 3.68621
RightLeg  -107.332 -3.14997 18.1833
RightFoot  23.4842 5.94554 -18.02
RightToes  -1.27222e-014 -6.36111e-015 6.36111e-015
Spine  -56.1464 -15.1184 -8.65477
Spine1  10.8569 -12.9486 43.5045
HEad  9.90638 -14.2565 -20.2292
LeftShoulder1  6.36111e-015 -1.33558e-015 6.49777e-015
LeftArm  71.2411 -13.298 -53.5116
LeftForeArm  -97.2527 -49.2199 116.308
LeftHand  3.40937 6.66088 5.30398
RightShoulder  -4.77083e-015 -6.36111e-015 -3.18055e-015
RightArm  89.1467 -33.0426 -6.2005
RightForeArm  -58.2013 26.3747 -81.0795
RightHand  -2.35932 13.4384 -1.58614
LeftUpLeg  42.4143 23.4919 22.769
LeftLeg  -27.2013 -2.72584 -5.53375
LeftFoot  5.62992 2.08945 -5.9798
LeftToes  9.54166e-015 4.2066e-011 -8.07781e-011
3
root  -1.95847 39.2346 -60.5771 -0.742426 9.58439 -0.185015
RightUpLeg  20.8847 8.02951 2.87443
RightLeg  -106.965 -3.5862 17.3987
RightFoot  23.3577 5.79351 -17.7826
RightToes  -1.27222e-014 -6.36111e-015 6.36111e-015
Spine  -55.8067 -15.214 -8.89372
Spine1  11.0433 -12.8274 43.3824
HEad  10.333 -13.4739 -20.2005
LeftShoulder1  6.36111e-015 -1.33558e-015 6.49777e-015
LeftArm  70.2709 -12.2289 -52.1537
LeftForeArm  -97.2579 -49.4685 116.516
LeftHand  3.16386 6.11389 5.27749
RightShoulder  -4.77083e-015 -6.36111e-015 -3.18055e-015
RightArm  88.856 -32.6394 -8.13018
RightForeArm  -60.6637 23.4004 -77.9394
RightHand  -2.94483 17.3356 4.86988
LeftUpLeg  42.7549 23.5532 22.1793
LeftLeg  -27.3324 -2.2545 -5.86866
LeftFoot  5.5244 2.0027 -5.74798
LeftToes  9.54166e-015 4.2066e-011 -8.07781e-011
4
root  -1.78474 39.2166 -60.4729 -0.735661 9.65864 0.0396838
RightUpLeg  20.7991 7.50844 1.99368
RightLeg  -106.605 -3.97403 16.6959
RightFoot  23.2195 5.66758 -17.5809
RightToes  -1.27222e-014 -6.36111e-015 6.36111e-015
Spine  -55.5179 -15.5879 -9.34368
Spine1  11.1805 -12.8014 43.5481
HEad  11.0118 -12.8473 -20.0521
LeftShoulder1  6.36111e-015 -1.33558e-015 6.49777e-015
LeftArm  69.3359 -11.1548 -51.0826
LeftForeArm  -97.1693 -49.8012 116.438
LeftHand  3.04864 5.89221 5.1608
RightShoulder  -4.77083e-015 -6.36111e-015 -3.18055e-015
RightArm  88.3952 -32.6239 -10.3586
RightForeArm  -62.4533 21.3479 -75.0676
RightHand  -3.05529 20.21 10.1769
LeftUpLeg  42.8792 23.6515 21.5413
LeftLeg  -27.3065 -1.95912 -6.05732
LeftFoot  5.408 1.92111 -5.53113
LeftToes  9.54166e-015 4.2066e-011 -8.07781e-011
5
root  -1.62405 39.1915 -60.3672 -0.625314 9.97614 0.207886
RightUpLeg  20.6294 6.84183 1.13129
RightLeg  -106.222 -4.2974 16.0955
RightFoot  22.9755 5.47959 -17.2729
RightToes  -1.27222e-014 -6.36111e-015 6.36111e-015
Spine  -55.3636 -16.1465 -9.8834
Spine1  11.354 -12.8877 43.9956
HEad  11.617 -12.5251 -19.8025
LeftShoulder1  6.36111e-015 -1.33558e-015 6.49777e-015
LeftArm  68.5829 -10.2394 -50.5079
LeftForeArm  -97.1005 -50.0398 116.366
LeftHand  3.26731 6.3968 5.13863
RightShoulder  -4.77083e-015 -6.36111e-015 -3.18055e-015
RightArm  88.0036 -32.9656 -13.1256
RightForeArm  -63.3423 20.3116 -73.1944
RightHand  -3.03263 22.7548 13.4438
LeftUpLeg  42.819 23.8701 21.1218
LeftLeg  -27.0718 -2.03966 -5.96005
LeftFoot  5.20752 1.85212 -5.36096
LeftToes  9.54166e-015 4.2066e-011 -8.07781e-011
6
root  -1.47201 39.1615 -60.2532 -0.565822 10.1883 0.341053
RightUpLeg  20.4701 6.12146 0.315951
RightLeg  -105.743 -4.74004 15.416
RightFoot  22.6777 5.26161 -16.9105
RightToes  -1.27222e-014 -6.36111e-015 6.36111e-015
Spine  -55.1937 -16.692 -10.503
Spine1  11.6445 -12.9318 44.6092
HEad  11.9359 -12.3181 -19.6258
LeftShoulder1  6.36111e-015 -1.33558e-015 6.49777e-015
LeftArm  67.8042 -9.35213 -49.9385
LeftForeArm  -97.1113 -50.0689 116.425
LeftHand  3.54408 7.02801 5.13376
RightShoulder  -4.77083e-015 -6.36111e-015 -3.18055e-015
RightArm  87.6341 -33.1959 -16.9394
RightForeArm  -64.4948 19.1099 -71.1039
RightHand  -2.82174 25.6111 17.1308
LeftUpLeg  42.9258 24.1804 20.9967
LeftLeg  -26.8179 -2.24719 -5.83295
LeftFoot  4.88592 1.79473 -5.23922
LeftToes  9.54166e-015 4.2066e-011 -8.07781e-011
7
root  -1.32494 39.1328 -60.1263 -0.617794 10.1325 0.45212
RightUpLeg  20.4597 5.57665 -0.338557
RightLeg  -105.337 -5.25089 14.7276
RightFoot  22.4999 5.13793 -16.702
RightToes  -1.27222e-014 -6.36111e-015 6.36111e-015
Spine  -54.9016 -17.1555 -11.2148
Spine1  11.9151 -12.873 45.2929
HEad  12.0913 -11.9945 -19.6442
LeftShoulder1  6.36111e-015 -1.33558e-015 6.49777e-015
LeftArm  66.938 -8.36208 -49.079
LeftForeArm  -97.1644 -49.9668 116.54
LeftHand  3.5483 7.11195 4.93108
RightShoulder  -4.77083e-015 -6.36111e-015 -3.18055e-015
RightArm  86.931 -33.109 -21.3679
RightForeArm  -66.2283 17.4233 -67.8618
RightHand  -2.27098 28.0492 21.9319
LeftUpLeg  43.2913 24.4478 20.9926
LeftLeg  -26.6791 -2.26042 -5.90134
LeftFoot  4.51272 1.74077 -5.13224
LeftToes  9.54166e-015 4.2066e-011 -8.07781e-011
